<?xml version="1.0" encoding="UTF-8" standalone="no"?>
<!-- Created with Inkscape (http://www.inkscape.org/) -->

<svg
   version="1.1"
   id="svg2"
   xml:space="preserve"
   width="437.37109"
   height="542.02838"
   viewBox="0 0 437.37109 542.02838"
   sodipodi:docname="example_output.svg"
   inkscape:version="1.1.2 (0a00cf5339, 2022-02-04)"
   xmlns:inkscape="http://www.inkscape.org/namespaces/inkscape"
   xmlns:sodipodi="http://sodipodi.sourceforge.net/DTD/sodipodi-0.dtd"
   xmlns="http://www.w3.org/2000/svg"
   xmlns:svg="http://www.w3.org/2000/svg"><defs
     id="defs6"><clipPath
       clipPathUnits="userSpaceOnUse"
       id="clipPath16"><path
         d="M 0,0.028 H 611.971 V 791.999 H 0 Z"
         clip-rule="evenodd"
         id="path14" /></clipPath></defs><sodipodi:namedview
     id="namedview4"
     pagecolor="#ffffff"
     bordercolor="#666666"
     borderopacity="1.0"
     inkscape:pageshadow="2"
     inkscape:pageopacity="0.0"
     inkscape:pagecheckerboard="0"
     showgrid="false"
     inkscape:zoom="2"
     inkscape:cx="56.25"
     inkscape:cy="352"
     inkscape:window-width="3830"
     inkscape:window-height="2126"
     inkscape:window-x="0"
     inkscape:window-y="0"
     inkscape:window-maximized="1"
     inkscape:current-layer="g8"
     fit-margin-top="0"
     fit-margin-left="0"
     fit-margin-right="0"
     fit-margin-bottom="0" /><g
     id="g8"
     inkscape:groupmode="layer"
     inkscape:label="example_output"
     transform="matrix(1.3333333,0,0,-1.3333333,-103.8828,878.77208)"><g
       id="g10"
       transform="translate(20.775191,-75.067017)"><g
         id="g12"
         clip-path="url(#clipPath16)"><g
           id="g18"><text
             transform="matrix(1,0,0,-1,56.8,726.9)"
             style="font-variant:normal;font-weight:bold;font-size:10px;font-family:'Liberation Mono';-inkscape-font-specification:LiberationMono-Bold;writing-mode:lr-tb;fill:#5555ff;fill-opacity:1;fill-rule:nonzero;stroke:none"
             id="text22"><tspan
               x="0 6 12 18 24 30 36 42 48 54 60 66"
               y="0"
               sodipodi:role="line"
               id="tspan20">prak/prongen</tspan></text></g><g
           id="g24"><text
             transform="matrix(1,0,0,-1,128.8,726.9)"
             style="font-variant:normal;font-weight:normal;font-size:10px;font-family:'Liberation Mono';-inkscape-font-specification:LiberationMono;writing-mode:lr-tb;fill:#000000;fill-opacity:1;fill-rule:nonzero;stroke:none"
             id="text28"><tspan
               x="0 6 12 18 24 30 36 42 48 54 60 66 72 78 84 90 96 102 108 114 120 126"
               y="0"
               sodipodi:role="line"
               id="tspan26">$ ./prak_prongen.py -p</tspan></text></g><g
           id="g30"><text
             transform="matrix(1,0,0,-1,56.8,715.6)"
             style="font-variant:normal;font-weight:normal;font-size:10px;font-family:'Liberation Mono';-inkscape-font-specification:LiberationMono;writing-mode:lr-tb;fill:#000000;fill-opacity:1;fill-rule:nonzero;stroke:none"
             id="text34"><tspan
               x="0 6 12 18 24 30 36 42 48 54 60 66 72 78 84 90 96 102 108 114 120 126 132 138 144 150 156 162 168 174 180 186 192 198 204 210 216 222 228 234 240 246 252 258 264 270 276 282 288 294 300 306 312 318 324"
               y="0"
               sodipodi:role="line"
               id="tspan32">--- reading stdin, printing possible pronunciations ---</tspan></text></g><g
           id="g36"><text
             transform="matrix(1,0,0,-1,56.8,704.2)"
             style="font-variant:normal;font-weight:normal;font-size:10px;font-family:'Liberation Mono';-inkscape-font-specification:LiberationMono;writing-mode:lr-tb;fill:#000000;fill-opacity:1;fill-rule:nonzero;stroke:none"
             id="text40"><tspan
               x="0 6 12 18 24 30 36 42 48 54 60 66 72 78 84 90 96 102 108 114 120 126 132 138"
               y="0"
               sodipodi:role="line"
               id="tspan38">asi jsem shodil sedm piv</tspan></text></g><g
           id="g42" /><g
           id="g44"><text
             transform="matrix(1,0,0,-1,116.8,681.5)"
             style="font-variant:normal;font-weight:normal;font-size:10px;font-family:'Liberation Mono';-inkscape-font-specification:LiberationMono;writing-mode:lr-tb;fill:#5555ff;fill-opacity:1;fill-rule:nonzero;stroke:none"
             id="text48"><tspan
               x="0 6"
               y="0"
               sodipodi:role="line"
               id="tspan46">zh</tspan></text></g><g
           id="g50"><text
             transform="matrix(1,0,0,-1,56.8,670.2)"
             style="font-variant:normal;font-weight:normal;font-size:10px;font-family:'Liberation Mono';-inkscape-font-specification:LiberationMono;writing-mode:lr-tb;fill:#000000;fill-opacity:1;fill-rule:nonzero;stroke:none"
             id="text54"><tspan
               x="0 6 12 18 24"
               y="0"
               sodipodi:role="line"
               id="tspan52">ʔası </tspan></text></g><g
           id="g56"><text
             transform="matrix(1,0,0,-1,86.8,670.2)"
             style="font-variant:normal;font-weight:normal;font-size:10px;font-family:'Liberation Mono';-inkscape-font-specification:LiberationMono;writing-mode:lr-tb;fill:#5555ff;fill-opacity:1;fill-rule:nonzero;stroke:none"
             id="text60"><tspan
               x="0"
               y="0"
               id="tspan58">.</tspan></text></g><g
           id="g62"><text
             transform="matrix(1,0,0,-1,92.8,670.2)"
             style="font-variant:normal;font-weight:normal;font-size:10px;font-family:'Liberation Mono';-inkscape-font-specification:LiberationMono;writing-mode:lr-tb;fill:#000000;fill-opacity:1;fill-rule:nonzero;stroke:none"
             id="text66"><tspan
               x="0 6 12 18"
               y="0"
               sodipodi:role="line"
               id="tspan64">sem </tspan></text></g><g
           id="g68"><text
             transform="matrix(1,0,0,-1,116.8,670.2)"
             style="font-variant:normal;font-weight:normal;font-size:10px;font-family:'Liberation Mono';-inkscape-font-specification:LiberationMono;writing-mode:lr-tb;fill:#5555ff;fill-opacity:1;fill-rule:nonzero;stroke:none"
             id="text72"><tspan
               x="0 6"
               y="0"
               sodipodi:role="line"
               id="tspan70">sx</tspan></text></g><g
           id="g74"><text
             transform="matrix(1,0,0,-1,128.8,670.2)"
             style="font-variant:normal;font-weight:normal;font-size:10px;font-family:'Liberation Mono';-inkscape-font-specification:LiberationMono;writing-mode:lr-tb;fill:#000000;fill-opacity:1;fill-rule:nonzero;stroke:none"
             id="text78"><tspan
               x="0 6 12 18 24 30 36 42"
               y="0"
               sodipodi:role="line"
               id="tspan76">oďıl sed</tspan></text></g><g
           id="g80"><text
             transform="matrix(1,0,0,-1,176.8,670.2)"
             style="font-variant:normal;font-weight:normal;font-size:10px;font-family:'Liberation Mono';-inkscape-font-specification:LiberationMono;writing-mode:lr-tb;fill:#5555ff;fill-opacity:1;fill-rule:nonzero;stroke:none"
             id="text84"><tspan
               x="0"
               y="0"
               id="tspan82">.</tspan></text></g><g
           id="g86"><text
             transform="matrix(1,0,0,-1,182.8,670.2)"
             style="font-variant:normal;font-weight:normal;font-size:10px;font-family:'Liberation Mono';-inkscape-font-specification:LiberationMono;writing-mode:lr-tb;fill:#000000;fill-opacity:1;fill-rule:nonzero;stroke:none"
             id="text90"><tspan
               x="0 6 12 18 24"
               y="0"
               sodipodi:role="line"
               id="tspan88">m pıf</tspan></text></g><g
           id="g92" /><g
           id="g94"><text
             transform="matrix(1,0,0,-1,86.8,658.8)"
             style="font-variant:normal;font-weight:normal;font-size:10px;font-family:'Liberation Mono';-inkscape-font-specification:LiberationMono;writing-mode:lr-tb;fill:#5555ff;fill-opacity:1;fill-rule:nonzero;stroke:none"
             id="text98"><tspan
               x="0"
               y="0"
               id="tspan96">j</tspan></text></g><g
           id="g100" /><g
           id="g102"><text
             transform="matrix(1,0,0,-1,176.8,658.8)"
             style="font-variant:normal;font-weight:normal;font-size:10px;font-family:'Liberation Mono';-inkscape-font-specification:LiberationMono;writing-mode:lr-tb;fill:#5555ff;fill-opacity:1;fill-rule:nonzero;stroke:none"
             id="text106"><tspan
               x="0"
               y="0"
               id="tspan104">u</tspan></text></g><g
           id="g108"><text
             transform="matrix(1,0,0,-1,56.8,636.1)"
             style="font-variant:normal;font-weight:normal;font-size:10px;font-family:'Liberation Mono';-inkscape-font-specification:LiberationMono;writing-mode:lr-tb;fill:#000000;fill-opacity:1;fill-rule:nonzero;stroke:none"
             id="text112"><tspan
               x="0 6 12 18 24 30 36 42 48 54 60 66 72 78 84 90 96 102 108 114 120 126 132 138 144 150 156 162 168 174 180 186 192 198 204 210"
               y="0"
               sodipodi:role="line"
               id="tspan110">slyšel jsem asi galantní zpjěv ptáků</tspan></text></g><g
           id="g114" /><g
           id="g116"><text
             transform="matrix(1,0,0,-1,122.8,613.4)"
             style="font-variant:normal;font-weight:normal;font-size:10px;font-family:'Liberation Mono';-inkscape-font-specification:LiberationMono;writing-mode:lr-tb;fill:#5555ff;fill-opacity:1;fill-rule:nonzero;stroke:none"
             id="text120"><tspan
               x="0 6"
               y="0"
               sodipodi:role="line"
               id="tspan118">|ʔ</tspan></text></g><g
           id="g122" /><g
           id="g124"><text
             transform="matrix(1,0,0,-1,122.8,602.1)"
             style="font-variant:normal;font-weight:normal;font-size:10px;font-family:'Liberation Mono';-inkscape-font-specification:LiberationMono;writing-mode:lr-tb;fill:#5555ff;fill-opacity:1;fill-rule:nonzero;stroke:none"
             id="text128"><tspan
               x="0 6"
               y="0"
               sodipodi:role="line"
               id="tspan126">_ʔ</tspan></text></g><g
           id="g130"><text
             transform="matrix(1,0,0,-1,56.8,590.7)"
             style="font-variant:normal;font-weight:normal;font-size:10px;font-family:'Liberation Mono';-inkscape-font-specification:LiberationMono;writing-mode:lr-tb;fill:#000000;fill-opacity:1;fill-rule:nonzero;stroke:none"
             id="text134"><tspan
               x="0 6 12 18 24 30 36"
               y="0"
               sodipodi:role="line"
               id="tspan132">slıšel </tspan></text></g><g
           id="g136"><text
             transform="matrix(1,0,0,-1,98.8,590.7)"
             style="font-variant:normal;font-weight:normal;font-size:10px;font-family:'Liberation Mono';-inkscape-font-specification:LiberationMono;writing-mode:lr-tb;fill:#5555ff;fill-opacity:1;fill-rule:nonzero;stroke:none"
             id="text140"><tspan
               x="0"
               y="0"
               id="tspan138">.</tspan></text></g><g
           id="g142"><text
             transform="matrix(1,0,0,-1,104.8,590.7)"
             style="font-variant:normal;font-weight:normal;font-size:10px;font-family:'Liberation Mono';-inkscape-font-specification:LiberationMono;writing-mode:lr-tb;fill:#000000;fill-opacity:1;fill-rule:nonzero;stroke:none"
             id="text146"><tspan
               x="0 6 12"
               y="0"
               sodipodi:role="line"
               id="tspan144">sem</tspan></text></g><g
           id="g148"><text
             transform="matrix(1,0,0,-1,122.8,590.7)"
             style="font-variant:normal;font-weight:normal;font-size:10px;font-family:'Liberation Mono';-inkscape-font-specification:LiberationMono;writing-mode:lr-tb;fill:#5555ff;fill-opacity:1;fill-rule:nonzero;stroke:none"
             id="text152"><tspan
               x="0"
               y="0"
               id="tspan150">_</tspan></text></g><g
           id="g154"><text
             transform="matrix(1,0,0,-1,134.8,590.7)"
             style="font-variant:normal;font-weight:normal;font-size:10px;font-family:'Liberation Mono';-inkscape-font-specification:LiberationMono;writing-mode:lr-tb;fill:#000000;fill-opacity:1;fill-rule:nonzero;stroke:none"
             id="text158"><tspan
               x="0 6 12 18 24 30 36 42"
               y="0"
               sodipodi:role="line"
               id="tspan156">ası gala</tspan></text></g><g
           id="g160"><text
             transform="matrix(1,0,0,-1,182.8,590.7)"
             style="font-variant:normal;font-weight:normal;font-size:10px;font-family:'Liberation Mono';-inkscape-font-specification:LiberationMono;writing-mode:lr-tb;fill:#5555ff;fill-opacity:1;fill-rule:nonzero;stroke:none"
             id="text164"><tspan
               x="0 6"
               y="0"
               sodipodi:role="line"
               id="tspan162">nt</tspan></text></g><g
           id="g166"><text
             transform="matrix(1,0,0,-1,194.8,590.7)"
             style="font-variant:normal;font-weight:normal;font-size:10px;font-family:'Liberation Mono';-inkscape-font-specification:LiberationMono;writing-mode:lr-tb;fill:#000000;fill-opacity:1;fill-rule:nonzero;stroke:none"
             id="text170"><tspan
               x="0 6 12 18 24 30 36 42 48 54 60 66 72 78 84 90 96"
               y="0"
               sodipodi:role="line"
               id="tspan168">ňi: spjef pta:ku:</tspan></text></g><g
           id="g172" /><g
           id="g174"><text
             transform="matrix(1,0,0,-1,98.8,579.4)"
             style="font-variant:normal;font-weight:normal;font-size:10px;font-family:'Liberation Mono';-inkscape-font-specification:LiberationMono;writing-mode:lr-tb;fill:#5555ff;fill-opacity:1;fill-rule:nonzero;stroke:none"
             id="text178"><tspan
               x="0"
               y="0"
               id="tspan176">j</tspan></text></g><g
           id="g180" /><g
           id="g182"><text
             transform="matrix(1,0,0,-1,182.8,579.4)"
             style="font-variant:normal;font-weight:normal;font-size:10px;font-family:'Liberation Mono';-inkscape-font-specification:LiberationMono;writing-mode:lr-tb;fill:#5555ff;fill-opacity:1;fill-rule:nonzero;stroke:none"
             id="text186"><tspan
               x="0 6"
               y="0"
               sodipodi:role="line"
               id="tspan184">nť</tspan></text></g><g
           id="g188" /><g
           id="g190"><text
             transform="matrix(1,0,0,-1,182.8,568)"
             style="font-variant:normal;font-weight:normal;font-size:10px;font-family:'Liberation Mono';-inkscape-font-specification:LiberationMono;writing-mode:lr-tb;fill:#5555ff;fill-opacity:1;fill-rule:nonzero;stroke:none"
             id="text194"><tspan
               x="0 6"
               y="0"
               sodipodi:role="line"
               id="tspan192">ňť</tspan></text></g><g
           id="g196"><text
             transform="matrix(1,0,0,-1,56.8,545.3)"
             style="font-variant:normal;font-weight:normal;font-size:10px;font-family:'Liberation Mono';-inkscape-font-specification:LiberationMono;writing-mode:lr-tb;fill:#000000;fill-opacity:1;fill-rule:nonzero;stroke:none"
             id="text200"><tspan
               x="0 6 12 18 24 30 36 42 48 54 60 66 72 78 84 90 96 102 108 114 120 126 132 138 144 150 156 162 168 174 180 186 192"
               y="0"
               sodipodi:role="line"
               id="tspan198">v USA pneumatiky za eura nekoupíš</tspan></text></g><g
           id="g202" /><g
           id="g204"><text
             transform="matrix(1,0,0,-1,92.8,522.6)"
             style="font-variant:normal;font-weight:normal;font-size:10px;font-family:'Liberation Mono';-inkscape-font-specification:LiberationMono;writing-mode:lr-tb;fill:#5555ff;fill-opacity:1;fill-rule:nonzero;stroke:none"
             id="text208"><tspan
               x="0"
               y="0"
               id="tspan206">ʔ</tspan></text></g><g
           id="g210" /><g
           id="g212"><text
             transform="matrix(1,0,0,-1,152.8,522.6)"
             style="font-variant:normal;font-weight:normal;font-size:10px;font-family:'Liberation Mono';-inkscape-font-specification:LiberationMono;writing-mode:lr-tb;fill:#5555ff;fill-opacity:1;fill-rule:nonzero;stroke:none"
             id="text216"><tspan
               x="0 6"
               y="0"
               sodipodi:role="line"
               id="tspan214">eu</tspan></text></g><g
           id="g218"><text
             transform="matrix(1,0,0,-1,56.8,511.3)"
             style="font-variant:normal;font-weight:normal;font-size:10px;font-family:'Liberation Mono';-inkscape-font-specification:LiberationMono;writing-mode:lr-tb;fill:#5555ff;fill-opacity:1;fill-rule:nonzero;stroke:none"
             id="text222"><tspan
               x="0 6 12"
               y="0"
               sodipodi:role="line"
               id="tspan220">f=ʔ</tspan></text></g><g
           id="g224"><text
             transform="matrix(1,0,0,-1,74.8,511.3)"
             style="font-variant:normal;font-weight:normal;font-size:10px;font-family:'Liberation Mono';-inkscape-font-specification:LiberationMono;writing-mode:lr-tb;fill:#000000;fill-opacity:1;fill-rule:nonzero;stroke:none"
             id="text228"><tspan
               x="0 6 12"
               y="0"
               sodipodi:role="line"
               id="tspan226">u:=</tspan></text></g><g
           id="g230"><text
             transform="matrix(1,0,0,-1,92.8,511.3)"
             style="font-variant:normal;font-weight:normal;font-size:10px;font-family:'Liberation Mono';-inkscape-font-specification:LiberationMono;writing-mode:lr-tb;fill:#5555ff;fill-opacity:1;fill-rule:nonzero;stroke:none"
             id="text234"><tspan
               x="0"
               y="0"
               id="tspan232">.</tspan></text></g><g
           id="g236"><text
             transform="matrix(1,0,0,-1,98.8,511.3)"
             style="font-variant:normal;font-weight:normal;font-size:10px;font-family:'Liberation Mono';-inkscape-font-specification:LiberationMono;writing-mode:lr-tb;fill:#000000;fill-opacity:1;fill-rule:nonzero;stroke:none"
             id="text240"><tspan
               x="0 6 12"
               y="0"
               sodipodi:role="line"
               id="tspan238">es=</tspan></text></g><g
           id="g242"><text
             transform="matrix(1,0,0,-1,116.8,511.3)"
             style="font-variant:normal;font-weight:normal;font-size:10px;font-family:'Liberation Mono';-inkscape-font-specification:LiberationMono;writing-mode:lr-tb;fill:#5555ff;fill-opacity:1;fill-rule:nonzero;stroke:none"
             id="text246"><tspan
               x="0"
               y="0"
               id="tspan244">.</tspan></text></g><g
           id="g248"><text
             transform="matrix(1,0,0,-1,122.8,511.3)"
             style="font-variant:normal;font-weight:normal;font-size:10px;font-family:'Liberation Mono';-inkscape-font-specification:LiberationMono;writing-mode:lr-tb;fill:#000000;fill-opacity:1;fill-rule:nonzero;stroke:none"
             id="text252"><tspan
               x="0 6 12 18 24"
               y="0"
               sodipodi:role="line"
               id="tspan250">a: pn</tspan></text></g><g
           id="g254"><text
             transform="matrix(1,0,0,-1,152.8,511.3)"
             style="font-variant:normal;font-weight:normal;font-size:10px;font-family:'Liberation Mono';-inkscape-font-specification:LiberationMono;writing-mode:lr-tb;fill:#5555ff;fill-opacity:1;fill-rule:nonzero;stroke:none"
             id="text258"><tspan
               x="0"
               y="0"
               id="tspan256">e</tspan></text><text
             transform="matrix(1,0,0,-1,156.3,511.2)"
             style="font-variant:normal;font-weight:normal;font-size:10px;font-family:'Liberation Mono';-inkscape-font-specification:LiberationMono;writing-mode:lr-tb;fill:#5555ff;fill-opacity:1;fill-rule:nonzero;stroke:none"
             id="text262"><tspan
               x="0"
               y="0"
               id="tspan260">͡</tspan></text><text
             transform="matrix(1,0,0,-1,158.8,511.3)"
             style="font-variant:normal;font-weight:normal;font-size:10px;font-family:'Liberation Mono';-inkscape-font-specification:LiberationMono;writing-mode:lr-tb;fill:#5555ff;fill-opacity:1;fill-rule:nonzero;stroke:none"
             id="text266"><tspan
               x="0"
               y="0"
               id="tspan264">u</tspan></text></g><g
           id="g268"><text
             transform="matrix(1,0,0,-1,164.8,511.3)"
             style="font-variant:normal;font-weight:normal;font-size:10px;font-family:'Liberation Mono';-inkscape-font-specification:LiberationMono;writing-mode:lr-tb;fill:#000000;fill-opacity:1;fill-rule:nonzero;stroke:none"
             id="text272"><tspan
               x="0 6 12 18 24 30 36 42 48"
               y="0"
               sodipodi:role="line"
               id="tspan270">matıkı za</tspan></text></g><g
           id="g274"><text
             transform="matrix(1,0,0,-1,218.8,511.3)"
             style="font-variant:normal;font-weight:normal;font-size:10px;font-family:'Liberation Mono';-inkscape-font-specification:LiberationMono;writing-mode:lr-tb;fill:#5555ff;fill-opacity:1;fill-rule:nonzero;stroke:none"
             id="text278"><tspan
               x="0"
               y="0"
               id="tspan276">_</tspan></text></g><g
           id="g280"><text
             transform="matrix(1,0,0,-1,230.8,511.3)"
             style="font-variant:normal;font-weight:normal;font-size:10px;font-family:'Liberation Mono';-inkscape-font-specification:LiberationMono;writing-mode:lr-tb;fill:#000000;fill-opacity:1;fill-rule:nonzero;stroke:none"
             id="text284"><tspan
               x="0"
               y="0"
               id="tspan282">e</tspan></text><text
             transform="matrix(1,0,0,-1,234.3,511.2)"
             style="font-variant:normal;font-weight:normal;font-size:10px;font-family:'Liberation Mono';-inkscape-font-specification:LiberationMono;writing-mode:lr-tb;fill:#000000;fill-opacity:1;fill-rule:nonzero;stroke:none"
             id="text288"><tspan
               x="0"
               y="0"
               id="tspan286">͡</tspan></text><text
             transform="matrix(1,0,0,-1,236.8,511.3)"
             style="font-variant:normal;font-weight:normal;font-size:10px;font-family:'Liberation Mono';-inkscape-font-specification:LiberationMono;writing-mode:lr-tb;fill:#000000;fill-opacity:1;fill-rule:nonzero;stroke:none"
             id="text292"><tspan
               x="0 6 12 18 24 30 36 42"
               y="0"
               sodipodi:role="line"
               id="tspan290">ura neko</tspan></text><text
             transform="matrix(1,0,0,-1,282.4,511.2)"
             style="font-variant:normal;font-weight:normal;font-size:10px;font-family:'Liberation Mono';-inkscape-font-specification:LiberationMono;writing-mode:lr-tb;fill:#000000;fill-opacity:1;fill-rule:nonzero;stroke:none"
             id="text296"><tspan
               x="0"
               y="0"
               id="tspan294">͡</tspan></text><text
             transform="matrix(1,0,0,-1,284.8,511.3)"
             style="font-variant:normal;font-weight:normal;font-size:10px;font-family:'Liberation Mono';-inkscape-font-specification:LiberationMono;writing-mode:lr-tb;fill:#000000;fill-opacity:1;fill-rule:nonzero;stroke:none"
             id="text300"><tspan
               x="0 6 12 18 24"
               y="0"
               sodipodi:role="line"
               id="tspan298">upi:š</tspan></text></g><g
           id="g302"><text
             transform="matrix(1,0,0,-1,56.8,499.9)"
             style="font-variant:normal;font-weight:normal;font-size:10px;font-family:'Liberation Mono';-inkscape-font-specification:LiberationMono;writing-mode:lr-tb;fill:#5555ff;fill-opacity:1;fill-rule:nonzero;stroke:none"
             id="text306"><tspan
               x="0 6"
               y="0"
               sodipodi:role="line"
               id="tspan304">v=</tspan></text></g><g
           id="g308" /><g
           id="g310"><text
             transform="matrix(1,0,0,-1,116.8,499.9)"
             style="font-variant:normal;font-weight:normal;font-size:10px;font-family:'Liberation Mono';-inkscape-font-specification:LiberationMono;writing-mode:lr-tb;fill:#5555ff;fill-opacity:1;fill-rule:nonzero;stroke:none"
             id="text314"><tspan
               x="0"
               y="0"
               id="tspan312">ʔ</tspan></text></g><g
           id="g316" /><g
           id="g318"><text
             transform="matrix(1,0,0,-1,218.8,499.9)"
             style="font-variant:normal;font-weight:normal;font-size:10px;font-family:'Liberation Mono';-inkscape-font-specification:LiberationMono;writing-mode:lr-tb;fill:#5555ff;fill-opacity:1;fill-rule:nonzero;stroke:none"
             id="text322"><tspan
               x="0 6"
               y="0"
               sodipodi:role="line"
               id="tspan320">_ʔ</tspan></text></g><g
           id="g324" /><g
           id="g326"><text
             transform="matrix(1,0,0,-1,218.8,488.6)"
             style="font-variant:normal;font-weight:normal;font-size:10px;font-family:'Liberation Mono';-inkscape-font-specification:LiberationMono;writing-mode:lr-tb;fill:#5555ff;fill-opacity:1;fill-rule:nonzero;stroke:none"
             id="text330"><tspan
               x="0 6"
               y="0"
               sodipodi:role="line"
               id="tspan328">|ʔ</tspan></text></g><g
           id="g332"><text
             transform="matrix(1,0,0,-1,56.8,465.9)"
             style="font-variant:normal;font-weight:normal;font-size:10px;font-family:'Liberation Mono';-inkscape-font-specification:LiberationMono;writing-mode:lr-tb;fill:#000000;fill-opacity:1;fill-rule:nonzero;stroke:none"
             id="text336"><tspan
               x="0 6 12 18 24 30 36 42 48 54 60 66 72 78 84 90 96 102 108 114 120 126 132 138"
               y="0"
               sodipodi:role="line"
               id="tspan334">to jsou úřední dokumenty</tspan></text></g><g
           id="g338" /><g
           id="g340"><text
             transform="matrix(1,0,0,-1,98.8,443.2)"
             style="font-variant:normal;font-weight:normal;font-size:10px;font-family:'Liberation Mono';-inkscape-font-specification:LiberationMono;writing-mode:lr-tb;fill:#5555ff;fill-opacity:1;fill-rule:nonzero;stroke:none"
             id="text344"><tspan
               x="0 6"
               y="0"
               sodipodi:role="line"
               id="tspan342">|ʔ</tspan></text></g><g
           id="g346" /><g
           id="g348"><text
             transform="matrix(1,0,0,-1,98.8,431.8)"
             style="font-variant:normal;font-weight:normal;font-size:10px;font-family:'Liberation Mono';-inkscape-font-specification:LiberationMono;writing-mode:lr-tb;fill:#5555ff;fill-opacity:1;fill-rule:nonzero;stroke:none"
             id="text352"><tspan
               x="0 6"
               y="0"
               sodipodi:role="line"
               id="tspan350">_ʔ</tspan></text></g><g
           id="g354"><text
             transform="matrix(1,0,0,-1,56.8,420.5)"
             style="font-variant:normal;font-weight:normal;font-size:10px;font-family:'Liberation Mono';-inkscape-font-specification:LiberationMono;writing-mode:lr-tb;fill:#000000;fill-opacity:1;fill-rule:nonzero;stroke:none"
             id="text358"><tspan
               x="0 6 12"
               y="0"
               sodipodi:role="line"
               id="tspan356">to </tspan></text></g><g
           id="g360"><text
             transform="matrix(1,0,0,-1,74.8,420.5)"
             style="font-variant:normal;font-weight:normal;font-size:10px;font-family:'Liberation Mono';-inkscape-font-specification:LiberationMono;writing-mode:lr-tb;fill:#5555ff;fill-opacity:1;fill-rule:nonzero;stroke:none"
             id="text364"><tspan
               x="0"
               y="0"
               id="tspan362">.</tspan></text></g><g
           id="g366"><text
             transform="matrix(1,0,0,-1,80.8,420.5)"
             style="font-variant:normal;font-weight:normal;font-size:10px;font-family:'Liberation Mono';-inkscape-font-specification:LiberationMono;writing-mode:lr-tb;fill:#000000;fill-opacity:1;fill-rule:nonzero;stroke:none"
             id="text370"><tspan
               x="0 6"
               y="0"
               sodipodi:role="line"
               id="tspan368">so</tspan></text><text
             transform="matrix(1,0,0,-1,90.4,420.4)"
             style="font-variant:normal;font-weight:normal;font-size:10px;font-family:'Liberation Mono';-inkscape-font-specification:LiberationMono;writing-mode:lr-tb;fill:#000000;fill-opacity:1;fill-rule:nonzero;stroke:none"
             id="text374"><tspan
               x="0"
               y="0"
               id="tspan372">͡</tspan></text><text
             transform="matrix(1,0,0,-1,92.8,420.5)"
             style="font-variant:normal;font-weight:normal;font-size:10px;font-family:'Liberation Mono';-inkscape-font-specification:LiberationMono;writing-mode:lr-tb;fill:#000000;fill-opacity:1;fill-rule:nonzero;stroke:none"
             id="text378"><tspan
               x="0"
               y="0"
               id="tspan376">u</tspan></text></g><g
           id="g380"><text
             transform="matrix(1,0,0,-1,98.8,420.5)"
             style="font-variant:normal;font-weight:normal;font-size:10px;font-family:'Liberation Mono';-inkscape-font-specification:LiberationMono;writing-mode:lr-tb;fill:#5555ff;fill-opacity:1;fill-rule:nonzero;stroke:none"
             id="text384"><tspan
               x="0"
               y="0"
               id="tspan382">_</tspan></text></g><g
           id="g386"><text
             transform="matrix(1,0,0,-1,110.8,420.5)"
             style="font-variant:normal;font-weight:normal;font-size:10px;font-family:'Liberation Mono';-inkscape-font-specification:LiberationMono;writing-mode:lr-tb;fill:#000000;fill-opacity:1;fill-rule:nonzero;stroke:none"
             id="text390"><tspan
               x="0 6 12 18"
               y="0"
               sodipodi:role="line"
               id="tspan388">u:ře</tspan></text></g><g
           id="g392"><text
             transform="matrix(1,0,0,-1,134.8,420.5)"
             style="font-variant:normal;font-weight:normal;font-size:10px;font-family:'Liberation Mono';-inkscape-font-specification:LiberationMono;writing-mode:lr-tb;fill:#5555ff;fill-opacity:1;fill-rule:nonzero;stroke:none"
             id="text396"><tspan
               x="0"
               y="0"
               id="tspan394">d</tspan></text></g><g
           id="g398"><text
             transform="matrix(1,0,0,-1,140.8,420.5)"
             style="font-variant:normal;font-weight:normal;font-size:10px;font-family:'Liberation Mono';-inkscape-font-specification:LiberationMono;writing-mode:lr-tb;fill:#000000;fill-opacity:1;fill-rule:nonzero;stroke:none"
             id="text402"><tspan
               x="0 6 12 18 24 30 36 42 48 54 60 66 72"
               y="0"
               sodipodi:role="line"
               id="tspan400">ňi: dokumentı</tspan></text></g><g
           id="g404" /><g
           id="g406"><text
             transform="matrix(1,0,0,-1,74.8,409.1)"
             style="font-variant:normal;font-weight:normal;font-size:10px;font-family:'Liberation Mono';-inkscape-font-specification:LiberationMono;writing-mode:lr-tb;fill:#5555ff;fill-opacity:1;fill-rule:nonzero;stroke:none"
             id="text410"><tspan
               x="0"
               y="0"
               id="tspan408">j</tspan></text></g><g
           id="g412" /><g
           id="g414"><text
             transform="matrix(1,0,0,-1,134.8,409.1)"
             style="font-variant:normal;font-weight:normal;font-size:10px;font-family:'Liberation Mono';-inkscape-font-specification:LiberationMono;writing-mode:lr-tb;fill:#5555ff;fill-opacity:1;fill-rule:nonzero;stroke:none"
             id="text418"><tspan
               x="0"
               y="0"
               id="tspan416">ď</tspan></text></g><g
           id="g420"><text
             transform="matrix(1,0,0,-1,56.8,386.4)"
             style="font-variant:normal;font-weight:normal;font-size:10px;font-family:'Liberation Mono';-inkscape-font-specification:LiberationMono;writing-mode:lr-tb;fill:#000000;fill-opacity:1;fill-rule:nonzero;stroke:none"
             id="text424"><tspan
               x="0 6 12 18 24 30 36 42 48 54 60 66 72 78 84 90 96 102 108 114 120 126 132 138 144 150 156 162 168 174 180 186 192 198 204 210 216 222 228 234 240 246 252 258 264 270 276"
               y="0"
               sodipodi:role="line"
               id="tspan422">nashromáždilo se to na tom se shodneme už dnes </tspan></text></g><g
           id="g426" /><g
           id="g428"><text
             transform="matrix(1,0,0,-1,248.8,363.7)"
             style="font-variant:normal;font-weight:normal;font-size:10px;font-family:'Liberation Mono';-inkscape-font-specification:LiberationMono;writing-mode:lr-tb;fill:#5555ff;fill-opacity:1;fill-rule:nonzero;stroke:none"
             id="text432"><tspan
               x="0 6"
               y="0"
               sodipodi:role="line"
               id="tspan430">zh</tspan></text></g><g
           id="g434" /><g
           id="g436"><text
             transform="matrix(1,0,0,-1,314.8,363.7)"
             style="font-variant:normal;font-weight:normal;font-size:10px;font-family:'Liberation Mono';-inkscape-font-specification:LiberationMono;writing-mode:lr-tb;fill:#5555ff;fill-opacity:1;fill-rule:nonzero;stroke:none"
             id="text440"><tspan
               x="0 6"
               y="0"
               sodipodi:role="line"
               id="tspan438">ž_</tspan></text></g><g
           id="g442"><text
             transform="matrix(1,0,0,-1,56.8,352.4)"
             style="font-variant:normal;font-weight:normal;font-size:10px;font-family:'Liberation Mono';-inkscape-font-specification:LiberationMono;writing-mode:lr-tb;fill:#000000;fill-opacity:1;fill-rule:nonzero;stroke:none"
             id="text446"><tspan
               x="0 6 12"
               y="0"
               sodipodi:role="line"
               id="tspan444">na=</tspan></text></g><g
           id="g448"><text
             transform="matrix(1,0,0,-1,74.8,352.4)"
             style="font-variant:normal;font-weight:normal;font-size:10px;font-family:'Liberation Mono';-inkscape-font-specification:LiberationMono;writing-mode:lr-tb;fill:#5555ff;fill-opacity:1;fill-rule:nonzero;stroke:none"
             id="text452"><tspan
               x="0 6"
               y="0"
               sodipodi:role="line"
               id="tspan450">sx</tspan></text></g><g
           id="g454"><text
             transform="matrix(1,0,0,-1,86.8,352.4)"
             style="font-variant:normal;font-weight:normal;font-size:10px;font-family:'Liberation Mono';-inkscape-font-specification:LiberationMono;writing-mode:lr-tb;fill:#000000;fill-opacity:1;fill-rule:nonzero;stroke:none"
             id="text458"><tspan
               x="0 6 12 18 24 30 36 42 48 54 60 66 72 78 84 90 96 102 108 114 120 126 132 138 144 150 156"
               y="0"
               sodipodi:role="line"
               id="tspan456">roma:žďılo se to na tom se </tspan></text></g><g
           id="g460"><text
             transform="matrix(1,0,0,-1,248.8,352.4)"
             style="font-variant:normal;font-weight:normal;font-size:10px;font-family:'Liberation Mono';-inkscape-font-specification:LiberationMono;writing-mode:lr-tb;fill:#5555ff;fill-opacity:1;fill-rule:nonzero;stroke:none"
             id="text464"><tspan
               x="0 6"
               y="0"
               sodipodi:role="line"
               id="tspan462">sx</tspan></text></g><g
           id="g466"><text
             transform="matrix(1,0,0,-1,260.8,352.4)"
             style="font-variant:normal;font-weight:normal;font-size:10px;font-family:'Liberation Mono';-inkscape-font-specification:LiberationMono;writing-mode:lr-tb;fill:#000000;fill-opacity:1;fill-rule:nonzero;stroke:none"
             id="text470"><tspan
               x="0 6 12 18 24 30"
               y="0"
               sodipodi:role="line"
               id="tspan468">odneme</tspan></text></g><g
           id="g472"><text
             transform="matrix(1,0,0,-1,296.8,352.4)"
             style="font-variant:normal;font-weight:normal;font-size:10px;font-family:'Liberation Mono';-inkscape-font-specification:LiberationMono;writing-mode:lr-tb;fill:#5555ff;fill-opacity:1;fill-rule:nonzero;stroke:none"
             id="text476"><tspan
               x="0"
               y="0"
               id="tspan474">_</tspan></text></g><g
           id="g478"><text
             transform="matrix(1,0,0,-1,308.8,352.4)"
             style="font-variant:normal;font-weight:normal;font-size:10px;font-family:'Liberation Mono';-inkscape-font-specification:LiberationMono;writing-mode:lr-tb;fill:#000000;fill-opacity:1;fill-rule:nonzero;stroke:none"
             id="text482"><tspan
               x="0"
               y="0"
               id="tspan480">u</tspan></text></g><g
           id="g484"><text
             transform="matrix(1,0,0,-1,314.8,352.4)"
             style="font-variant:normal;font-weight:normal;font-size:10px;font-family:'Liberation Mono';-inkscape-font-specification:LiberationMono;writing-mode:lr-tb;fill:#5555ff;fill-opacity:1;fill-rule:nonzero;stroke:none"
             id="text488"><tspan
               x="0 6"
               y="0"
               sodipodi:role="line"
               id="tspan486">š|</tspan></text></g><g
           id="g490"><text
             transform="matrix(1,0,0,-1,326.8,352.4)"
             style="font-variant:normal;font-weight:normal;font-size:10px;font-family:'Liberation Mono';-inkscape-font-specification:LiberationMono;writing-mode:lr-tb;fill:#000000;fill-opacity:1;fill-rule:nonzero;stroke:none"
             id="text494"><tspan
               x="0 6 12 18"
               y="0"
               sodipodi:role="line"
               id="tspan492">dnes</tspan></text></g><g
           id="g496" /><g
           id="g498"><text
             transform="matrix(1,0,0,-1,74.8,341)"
             style="font-variant:normal;font-weight:normal;font-size:10px;font-family:'Liberation Mono';-inkscape-font-specification:LiberationMono;writing-mode:lr-tb;fill:#5555ff;fill-opacity:1;fill-rule:nonzero;stroke:none"
             id="text502"><tspan
               x="0 6"
               y="0"
               sodipodi:role="line"
               id="tspan500">zh</tspan></text></g><g
           id="g504" /><g
           id="g506"><text
             transform="matrix(1,0,0,-1,296.8,341)"
             style="font-variant:normal;font-weight:normal;font-size:10px;font-family:'Liberation Mono';-inkscape-font-specification:LiberationMono;writing-mode:lr-tb;fill:#5555ff;fill-opacity:1;fill-rule:nonzero;stroke:none"
             id="text510"><tspan
               x="0 6"
               y="0"
               sodipodi:role="line"
               id="tspan508">_ʔ</tspan></text></g><g
           id="g512" /><g
           id="g514"><text
             transform="matrix(1,0,0,-1,296.8,329.7)"
             style="font-variant:normal;font-weight:normal;font-size:10px;font-family:'Liberation Mono';-inkscape-font-specification:LiberationMono;writing-mode:lr-tb;fill:#5555ff;fill-opacity:1;fill-rule:nonzero;stroke:none"
             id="text518"><tspan
               x="0 6"
               y="0"
               sodipodi:role="line"
               id="tspan516">|ʔ</tspan></text></g></g></g></g></svg>
